<svg width="1400" height="420" viewBox="0 0 1400 420" fill="none" xmlns="http://www.w3.org/2000/svg" role="img" aria-labelledby="title desc">
  <title id="title">Codex2API Product Dark Banner</title>
  <desc id="desc">A polished product banner for Codex2API</desc>
  <defs>
    <linearGradient id="bg" x1="0" y1="0" x2="1400" y2="420" gradientUnits="userSpaceOnUse">
      <stop offset="0" stop-color="#111827"/>
      <stop offset="0.4" stop-color="#172033"/>
      <stop offset="1" stop-color="#1B1424"/>
    </linearGradient>
    <radialGradient id="halo" cx="50%" cy="45%" r="50%">
      <stop offset="0" stop-color="#F59E0B" stop-opacity="0.22"/>
      <stop offset="0.52" stop-color="#14B8A6" stop-opacity="0.14"/>
      <stop offset="1" stop-color="#111827" stop-opacity="0"/>
    </radialGradient>
    <linearGradient id="title" x1="240" y1="150" x2="1160" y2="252" gradientUnits="userSpaceOnUse">
      <stop offset="0" stop-color="#FFFFFF"/>
      <stop offset="0.52" stop-color="#E2E8F0"/>
      <stop offset="1" stop-color="#FDE68A"/>
    </linearGradient>
    <linearGradient id="pill" x1="0" y1="0" x2="198" y2="0" gradientUnits="userSpaceOnUse">
      <stop offset="0" stop-color="#14B8A6"/>
      <stop offset="1" stop-color="#F59E0B"/>
    </linearGradient>
    <filter id="shadow" x="-20%" y="-40%" width="140%" height="180%">
      <feDropShadow dx="0" dy="18" stdDeviation="26" flood-color="#000000" flood-opacity="0.35"/>
    </filter>
  </defs>
  <rect width="1400" height="420" rx="28" fill="url(#bg)"/>
  <rect width="1400" height="420" rx="28" fill="url(#halo)"/>
  <path d="M216 110H1184C1221.56 110 1252 140.44 1252 178V242C1252 279.56 1221.56 310 1184 310H216C178.444 310 148 279.56 148 242V178C148 140.44 178.444 110 216 110Z" fill="#0F172A" fill-opacity="0.58" stroke="#334155" stroke-width="2" filter="url(#shadow)"/>
  <rect x="214" y="73" width="198" height="42" rx="21" fill="url(#pill)"/>
  <text x="313" y="101" text-anchor="middle" font-family="Inter, ui-sans-serif, system-ui, -apple-system, BlinkMacSystemFont, Segoe UI, sans-serif" font-size="16" font-weight="900" letter-spacing="2" fill="#111827">GATEWAY</text>
  <rect x="988" y="306" width="198" height="42" rx="21" fill="#E2E8F0"/>
  <text x="1087" y="334" text-anchor="middle" font-family="Inter, ui-sans-serif, system-ui, -apple-system, BlinkMacSystemFont, Segoe UI, sans-serif" font-size="16" font-weight="900" letter-spacing="2" fill="#111827">CONTROL</text>
  <text x="700" y="237" text-anchor="middle" font-family="Inter, ui-sans-serif, system-ui, -apple-system, BlinkMacSystemFont, Segoe UI, sans-serif" font-size="124" font-weight="900" letter-spacing="0" fill="url(#title)">Codex2API</text>
  <text x="700" y="286" text-anchor="middle" font-family="Inter, ui-sans-serif, system-ui, -apple-system, BlinkMacSystemFont, Segoe UI, sans-serif" font-size="28" font-weight="800" letter-spacing="4" fill="#CBD5E1">SCHEDULE · OBSERVE · RECOVER · ROUTE</text>
  <g opacity="0.72">
    <path d="M258 178H360M1040 242H1142" stroke="#14B8A6" stroke-width="5" stroke-linecap="round"/>
    <path d="M258 242H330M1070 178H1142" stroke="#F59E0B" stroke-width="5" stroke-linecap="round"/>
  </g>
</svg>
